<svg width="171" height="16" viewBox="0 0 171 16" fill="none" xmlns="http://www.w3.org/2000/svg">
<path d="M3.59075 10V2.8H5.30275V10H3.59075ZM0.75875 7.2V5.6H8.13475V7.2H0.75875ZM14.6104 12.16C13.725 12.16 12.925 11.936 12.2104 11.488C11.5064 11.04 10.9517 10.3893 10.5464 9.536C10.141 8.672 9.93838 7.62667 9.93838 6.4C9.93838 5.17333 10.141 4.13333 10.5464 3.28C10.9517 2.416 11.5064 1.76 12.2104 1.312C12.925 0.863999 13.725 0.639999 14.6104 0.639999C15.5064 0.639999 16.3064 0.863999 17.0104 1.312C17.7144 1.76 18.269 2.416 18.6744 3.28C19.0904 4.13333 19.2984 5.17333 19.2984 6.4C19.2984 7.62667 19.0904 8.672 18.6744 9.536C18.269 10.3893 17.7144 11.04 17.0104 11.488C16.3064 11.936 15.5064 12.16 14.6104 12.16ZM14.6104 10.352C15.133 10.352 15.5864 10.2133 15.9704 9.936C16.3544 9.648 16.653 9.21067 16.8664 8.624C17.0904 8.03733 17.2024 7.296 17.2024 6.4C17.2024 5.49333 17.0904 4.752 16.8664 4.176C16.653 3.58933 16.3544 3.15733 15.9704 2.88C15.5864 2.592 15.133 2.448 14.6104 2.448C14.109 2.448 13.661 2.592 13.2664 2.88C12.8824 3.15733 12.5784 3.58933 12.3544 4.176C12.141 4.752 12.0344 5.49333 12.0344 6.4C12.0344 7.296 12.141 8.03733 12.3544 8.624C12.5784 9.21067 12.8824 9.648 13.2664 9.936C13.661 10.2133 14.109 10.352 14.6104 10.352ZM25.376 12.16C24.4907 12.16 23.6907 11.936 22.976 11.488C22.272 11.04 21.7173 10.3893 21.312 9.536C20.9067 8.672 20.704 7.62667 20.704 6.4C20.704 5.17333 20.9067 4.13333 21.312 3.28C21.7173 2.416 22.272 1.76 22.976 1.312C23.6907 0.863999 24.4907 0.639999 25.376 0.639999C26.272 0.639999 27.072 0.863999 27.776 1.312C28.48 1.76 29.0347 2.416 29.44 3.28C29.856 4.13333 30.064 5.17333 30.064 6.4C30.064 7.62667 29.856 8.672 29.44 9.536C29.0347 10.3893 28.48 11.04 27.776 11.488C27.072 11.936 26.272 12.16 25.376 12.16ZM25.376 10.352C25.8987 10.352 26.352 10.2133 26.736 9.936C27.12 9.648 27.4187 9.21067 27.632 8.624C27.856 8.03733 27.968 7.296 27.968 6.4C27.968 5.49333 27.856 4.752 27.632 4.176C27.4187 3.58933 27.12 3.15733 26.736 2.88C26.352 2.592 25.8987 2.448 25.376 2.448C24.8747 2.448 24.4267 2.592 24.032 2.88C23.648 3.15733 23.344 3.58933 23.12 4.176C22.9067 4.752 22.8 5.49333 22.8 6.4C22.8 7.296 22.9067 8.03733 23.12 8.624C23.344 9.21067 23.648 9.648 24.032 9.936C24.4267 10.2133 24.8747 10.352 25.376 10.352ZM38.4835 15.104C37.8542 14.1333 37.3688 13.0133 37.0275 11.744C36.6968 10.464 36.5315 9.088 36.5315 7.616C36.5315 6.144 36.6968 4.768 37.0275 3.488C37.3688 2.19733 37.8542 1.07733 38.4835 0.127999H40.3875C39.7368 1.30133 39.2568 2.50133 38.9475 3.728C38.6488 4.944 38.4995 6.24 38.4995 7.616C38.4995 8.992 38.6488 10.2933 38.9475 11.52C39.2568 12.736 39.7368 13.9307 40.3875 15.104H38.4835ZM46.1104 12.16C45.225 12.16 44.425 11.936 43.7104 11.488C43.0064 11.04 42.4517 10.3893 42.0464 9.536C41.641 8.672 41.4384 7.62667 41.4384 6.4C41.4384 5.17333 41.641 4.13333 42.0464 3.28C42.4517 2.416 43.0064 1.76 43.7104 1.312C44.425 0.863999 45.225 0.639999 46.1104 0.639999C47.0064 0.639999 47.8064 0.863999 48.5104 1.312C49.2144 1.76 49.769 2.416 50.1744 3.28C50.5904 4.13333 50.7984 5.17333 50.7984 6.4C50.7984 7.62667 50.5904 8.672 50.1744 9.536C49.769 10.3893 49.2144 11.04 48.5104 11.488C47.8064 11.936 47.0064 12.16 46.1104 12.16ZM46.1104 10.352C46.633 10.352 47.0864 10.2133 47.4704 9.936C47.8544 9.648 48.153 9.21067 48.3664 8.624C48.5904 8.03733 48.7024 7.296 48.7024 6.4C48.7024 5.49333 48.5904 4.752 48.3664 4.176C48.153 3.58933 47.8544 3.15733 47.4704 2.88C47.0864 2.592 46.633 2.448 46.1104 2.448C45.609 2.448 45.161 2.592 44.7664 2.88C44.3824 3.15733 44.0784 3.58933 43.8544 4.176C43.641 4.752 43.5344 5.49333 43.5344 6.4C43.5344 7.296 43.641 8.03733 43.8544 8.624C44.0784 9.21067 44.3824 9.648 44.7664 9.936C45.161 10.2133 45.609 10.352 46.1104 10.352ZM56.876 12.16C55.9907 12.16 55.1907 11.936 54.476 11.488C53.772 11.04 53.2173 10.3893 52.812 9.536C52.4067 8.672 52.204 7.62667 52.204 6.4C52.204 5.17333 52.4067 4.13333 52.812 3.28C53.2173 2.416 53.772 1.76 54.476 1.312C55.1907 0.863999 55.9907 0.639999 56.876 0.639999C57.772 0.639999 58.572 0.863999 59.276 1.312C59.98 1.76 60.5347 2.416 60.94 3.28C61.356 4.13333 61.564 5.17333 61.564 6.4C61.564 7.62667 61.356 8.672 60.94 9.536C60.5347 10.3893 59.98 11.04 59.276 11.488C58.572 11.936 57.772 12.16 56.876 12.16ZM56.876 10.352C57.3987 10.352 57.852 10.2133 58.236 9.936C58.62 9.648 58.9187 9.21067 59.132 8.624C59.356 8.03733 59.468 7.296 59.468 6.4C59.468 5.49333 59.356 4.752 59.132 4.176C58.9187 3.58933 58.62 3.15733 58.236 2.88C57.852 2.592 57.3987 2.448 56.876 2.448C56.3747 2.448 55.9267 2.592 55.532 2.88C55.148 3.15733 54.844 3.58933 54.62 4.176C54.4067 4.752 54.3 5.49333 54.3 6.4C54.3 7.296 54.4067 8.03733 54.62 8.624C54.844 9.21067 55.148 9.648 55.532 9.936C55.9267 10.2133 56.3747 10.352 56.876 10.352ZM67.6416 12.16C66.7563 12.16 65.9563 11.936 65.2416 11.488C64.5376 11.04 63.983 10.3893 63.5776 9.536C63.1723 8.672 62.9696 7.62667 62.9696 6.4C62.9696 5.17333 63.1723 4.13333 63.5776 3.28C63.983 2.416 64.5376 1.76 65.2416 1.312C65.9563 0.863999 66.7563 0.639999 67.6416 0.639999C68.5376 0.639999 69.3376 0.863999 70.0416 1.312C70.7456 1.76 71.3003 2.416 71.7056 3.28C72.1216 4.13333 72.3296 5.17333 72.3296 6.4C72.3296 7.62667 72.1216 8.672 71.7056 9.536C71.3003 10.3893 70.7456 11.04 70.0416 11.488C69.3376 11.936 68.5376 12.16 67.6416 12.16ZM67.6416 10.352C68.1643 10.352 68.6176 10.2133 69.0016 9.936C69.3856 9.648 69.6843 9.21067 69.8976 8.624C70.1216 8.03733 70.2336 7.296 70.2336 6.4C70.2336 5.49333 70.1216 4.752 69.8976 4.176C69.6843 3.58933 69.3856 3.15733 69.0016 2.88C68.6176 2.592 68.1643 2.448 67.6416 2.448C67.1403 2.448 66.6923 2.592 66.2976 2.88C65.9136 3.15733 65.6096 3.58933 65.3856 4.176C65.1723 4.752 65.0656 5.49333 65.0656 6.4C65.0656 7.296 65.1723 8.03733 65.3856 8.624C65.6096 9.21067 65.9136 9.648 66.2976 9.936C66.6923 10.2133 67.1403 10.352 67.6416 10.352ZM75.2873 15.104H73.3833C74.0446 13.9307 74.5246 12.736 74.8233 11.52C75.1326 10.2933 75.2873 8.992 75.2873 7.616C75.2873 6.24 75.1326 4.944 74.8233 3.728C74.5246 2.50133 74.0446 1.30133 73.3833 0.127999H75.2873C75.9273 1.07733 76.4126 2.19733 76.7433 3.488C77.0739 4.768 77.2393 6.144 77.2393 7.616C77.2393 9.088 77.0739 10.464 76.7433 11.744C76.4126 13.0133 75.9273 14.1333 75.2873 15.104ZM88.3916 12.16C87.5063 12.16 86.7063 11.936 85.9916 11.488C85.2876 11.04 84.733 10.3893 84.3276 9.536C83.9223 8.672 83.7196 7.62667 83.7196 6.4C83.7196 5.17333 83.9223 4.13333 84.3276 3.28C84.733 2.416 85.2876 1.76 85.9916 1.312C86.7063 0.863999 87.5063 0.639999 88.3916 0.639999C89.2876 0.639999 90.0876 0.863999 90.7916 1.312C91.4956 1.76 92.0503 2.416 92.4556 3.28C92.8716 4.13333 93.0796 5.17333 93.0796 6.4C93.0796 7.62667 92.8716 8.672 92.4556 9.536C92.0503 10.3893 91.4956 11.04 90.7916 11.488C90.0876 11.936 89.2876 12.16 88.3916 12.16ZM88.3916 10.352C88.9143 10.352 89.3676 10.2133 89.7516 9.936C90.1356 9.648 90.4343 9.21067 90.6476 8.624C90.8716 8.03733 90.9836 7.296 90.9836 6.4C90.9836 5.49333 90.8716 4.752 90.6476 4.176C90.4343 3.58933 90.1356 3.15733 89.7516 2.88C89.3676 2.592 88.9143 2.448 88.3916 2.448C87.8903 2.448 87.4423 2.592 87.0476 2.88C86.6636 3.15733 86.3596 3.58933 86.1356 4.176C85.9223 4.752 85.8156 5.49333 85.8156 6.4C85.8156 7.296 85.9223 8.03733 86.1356 8.624C86.3596 9.21067 86.6636 9.648 87.0476 9.936C87.4423 10.2133 87.8903 10.352 88.3916 10.352ZM99.1573 12.16C98.2719 12.16 97.4719 11.936 96.7573 11.488C96.0533 11.04 95.4986 10.3893 95.0933 9.536C94.6879 8.672 94.4853 7.62667 94.4853 6.4C94.4853 5.17333 94.6879 4.13333 95.0933 3.28C95.4986 2.416 96.0533 1.76 96.7573 1.312C97.4719 0.863999 98.2719 0.639999 99.1573 0.639999C100.053 0.639999 100.853 0.863999 101.557 1.312C102.261 1.76 102.816 2.416 103.221 3.28C103.637 4.13333 103.845 5.17333 103.845 6.4C103.845 7.62667 103.637 8.672 103.221 9.536C102.816 10.3893 102.261 11.04 101.557 11.488C100.853 11.936 100.053 12.16 99.1573 12.16ZM99.1573 10.352C99.6799 10.352 100.133 10.2133 100.517 9.936C100.901 9.648 101.2 9.21067 101.413 8.624C101.637 8.03733 101.749 7.296 101.749 6.4C101.749 5.49333 101.637 4.752 101.413 4.176C101.2 3.58933 100.901 3.15733 100.517 2.88C100.133 2.592 99.6799 2.448 99.1573 2.448C98.6559 2.448 98.2079 2.592 97.8133 2.88C97.4293 3.15733 97.1253 3.58933 96.9013 4.176C96.6879 4.752 96.5813 5.49333 96.5813 6.4C96.5813 7.296 96.6879 8.03733 96.9013 8.624C97.1253 9.21067 97.4293 9.648 97.8133 9.936C98.2079 10.2133 98.6559 10.352 99.1573 10.352ZM109.923 12.16C109.038 12.16 108.238 11.936 107.523 11.488C106.819 11.04 106.264 10.3893 105.859 9.536C105.454 8.672 105.251 7.62667 105.251 6.4C105.251 5.17333 105.454 4.13333 105.859 3.28C106.264 2.416 106.819 1.76 107.523 1.312C108.238 0.863999 109.038 0.639999 109.923 0.639999C110.819 0.639999 111.619 0.863999 112.323 1.312C113.027 1.76 113.582 2.416 113.987 3.28C114.403 4.13333 114.611 5.17333 114.611 6.4C114.611 7.62667 114.403 8.672 113.987 9.536C113.582 10.3893 113.027 11.04 112.323 11.488C111.619 11.936 110.819 12.16 109.923 12.16ZM109.923 10.352C110.446 10.352 110.899 10.2133 111.283 9.936C111.667 9.648 111.966 9.21067 112.179 8.624C112.403 8.03733 112.515 7.296 112.515 6.4C112.515 5.49333 112.403 4.752 112.179 4.176C111.966 3.58933 111.667 3.15733 111.283 2.88C110.899 2.592 110.446 2.448 109.923 2.448C109.422 2.448 108.974 2.592 108.579 2.88C108.195 3.15733 107.891 3.58933 107.667 4.176C107.454 4.752 107.347 5.49333 107.347 6.4C107.347 7.296 107.454 8.03733 107.667 8.624C107.891 9.21067 108.195 9.648 108.579 9.936C108.974 10.2133 109.422 10.352 109.923 10.352ZM116.271 8.384V6.72H120.671V8.384H116.271ZM127.001 12.16C126.116 12.16 125.316 11.936 124.601 11.488C123.897 11.04 123.342 10.3893 122.937 9.536C122.532 8.672 122.329 7.62667 122.329 6.4C122.329 5.17333 122.532 4.13333 122.937 3.28C123.342 2.416 123.897 1.76 124.601 1.312C125.316 0.863999 126.116 0.639999 127.001 0.639999C127.897 0.639999 128.697 0.863999 129.401 1.312C130.105 1.76 130.66 2.416 131.065 3.28C131.481 4.13333 131.689 5.17333 131.689 6.4C131.689 7.62667 131.481 8.672 131.065 9.536C130.66 10.3893 130.105 11.04 129.401 11.488C128.697 11.936 127.897 12.16 127.001 12.16ZM127.001 10.352C127.524 10.352 127.977 10.2133 128.361 9.936C128.745 9.648 129.044 9.21067 129.257 8.624C129.481 8.03733 129.593 7.296 129.593 6.4C129.593 5.49333 129.481 4.752 129.257 4.176C129.044 3.58933 128.745 3.15733 128.361 2.88C127.977 2.592 127.524 2.448 127.001 2.448C126.5 2.448 126.052 2.592 125.657 2.88C125.273 3.15733 124.969 3.58933 124.745 4.176C124.532 4.752 124.425 5.49333 124.425 6.4C124.425 7.296 124.532 8.03733 124.745 8.624C124.969 9.21067 125.273 9.648 125.657 9.936C126.052 10.2133 126.5 10.352 127.001 10.352ZM137.767 12.16C136.881 12.16 136.081 11.936 135.367 11.488C134.663 11.04 134.108 10.3893 133.703 9.536C133.297 8.672 133.095 7.62667 133.095 6.4C133.095 5.17333 133.297 4.13333 133.703 3.28C134.108 2.416 134.663 1.76 135.367 1.312C136.081 0.863999 136.881 0.639999 137.767 0.639999C138.663 0.639999 139.463 0.863999 140.167 1.312C140.871 1.76 141.425 2.416 141.831 3.28C142.247 4.13333 142.455 5.17333 142.455 6.4C142.455 7.62667 142.247 8.672 141.831 9.536C141.425 10.3893 140.871 11.04 140.167 11.488C139.463 11.936 138.663 12.16 137.767 12.16ZM137.767 10.352C138.289 10.352 138.743 10.2133 139.127 9.936C139.511 9.648 139.809 9.21067 140.023 8.624C140.247 8.03733 140.359 7.296 140.359 6.4C140.359 5.49333 140.247 4.752 140.023 4.176C139.809 3.58933 139.511 3.15733 139.127 2.88C138.743 2.592 138.289 2.448 137.767 2.448C137.265 2.448 136.817 2.592 136.423 2.88C136.039 3.15733 135.735 3.58933 135.511 4.176C135.297 4.752 135.191 5.49333 135.191 6.4C135.191 7.296 135.297 8.03733 135.511 8.624C135.735 9.21067 136.039 9.648 136.423 9.936C136.817 10.2133 137.265 10.352 137.767 10.352ZM144.114 8.384V6.72H148.514V8.384H144.114ZM154.845 12.16C153.959 12.16 153.159 11.936 152.445 11.488C151.741 11.04 151.186 10.3893 150.781 9.536C150.375 8.672 150.173 7.62667 150.173 6.4C150.173 5.17333 150.375 4.13333 150.781 3.28C151.186 2.416 151.741 1.76 152.445 1.312C153.159 0.863999 153.959 0.639999 154.845 0.639999C155.741 0.639999 156.541 0.863999 157.245 1.312C157.949 1.76 158.503 2.416 158.909 3.28C159.325 4.13333 159.533 5.17333 159.533 6.4C159.533 7.62667 159.325 8.672 158.909 9.536C158.503 10.3893 157.949 11.04 157.245 11.488C156.541 11.936 155.741 12.16 154.845 12.16ZM154.845 10.352C155.367 10.352 155.821 10.2133 156.205 9.936C156.589 9.648 156.887 9.21067 157.101 8.624C157.325 8.03733 157.437 7.296 157.437 6.4C157.437 5.49333 157.325 4.752 157.101 4.176C156.887 3.58933 156.589 3.15733 156.205 2.88C155.821 2.592 155.367 2.448 154.845 2.448C154.343 2.448 153.895 2.592 153.501 2.88C153.117 3.15733 152.813 3.58933 152.589 4.176C152.375 4.752 152.269 5.49333 152.269 6.4C152.269 7.296 152.375 8.03733 152.589 8.624C152.813 9.21067 153.117 9.648 153.501 9.936C153.895 10.2133 154.343 10.352 154.845 10.352ZM165.61 12.16C164.725 12.16 163.925 11.936 163.21 11.488C162.506 11.04 161.952 10.3893 161.546 9.536C161.141 8.672 160.938 7.62667 160.938 6.4C160.938 5.17333 161.141 4.13333 161.546 3.28C161.952 2.416 162.506 1.76 163.21 1.312C163.925 0.863999 164.725 0.639999 165.61 0.639999C166.506 0.639999 167.306 0.863999 168.01 1.312C168.714 1.76 169.269 2.416 169.674 3.28C170.09 4.13333 170.298 5.17333 170.298 6.4C170.298 7.62667 170.09 8.672 169.674 9.536C169.269 10.3893 168.714 11.04 168.01 11.488C167.306 11.936 166.506 12.16 165.61 12.16ZM165.61 10.352C166.133 10.352 166.586 10.2133 166.97 9.936C167.354 9.648 167.653 9.21067 167.866 8.624C168.09 8.03733 168.202 7.296 168.202 6.4C168.202 5.49333 168.09 4.752 167.866 4.176C167.653 3.58933 167.354 3.15733 166.97 2.88C166.586 2.592 166.133 2.448 165.61 2.448C165.109 2.448 164.661 2.592 164.266 2.88C163.882 3.15733 163.578 3.58933 163.354 4.176C163.141 4.752 163.034 5.49333 163.034 6.4C163.034 7.296 163.141 8.03733 163.354 8.624C163.578 9.21067 163.882 9.648 164.266 9.936C164.661 10.2133 165.109 10.352 165.61 10.352Z" fill="white"/>
</svg>
